<svg width="811" height="357" viewBox="0 0 811 357" fill="none" xmlns="http://www.w3.org/2000/svg">
<path d="M327.5 75C334.404 75 340 69.4036 340 62.5C340 55.5964 334.404 50 327.5 50C320.596 50 315 55.5964 315 62.5C315 69.4036 320.596 75 327.5 75Z" fill="white"/>
<path d="M514 357C518.142 357 521.5 353.642 521.5 349.5C521.5 345.358 518.142 342 514 342C509.858 342 506.5 345.358 506.5 349.5C506.5 353.642 509.858 357 514 357Z" fill="white"/>
<path d="M671.5 16C674.261 16 676.5 13.7614 676.5 11C676.5 8.23858 674.261 6 671.5 6C668.739 6 666.5 8.23858 666.5 11C666.5 13.7614 668.739 16 671.5 16Z" fill="white"/>
<path d="M7.5 203.5C11.6421 203.5 15 200.142 15 196C15 191.858 11.6421 188.5 7.5 188.5C3.35786 188.5 0 191.858 0 196C0 200.142 3.35786 203.5 7.5 203.5Z" fill="white"/>
<path d="M767 303C773.904 303 779.5 297.404 779.5 290.5C779.5 283.596 773.904 278 767 278C760.096 278 754.5 283.596 754.5 290.5C754.5 297.404 760.096 303 767 303Z" fill="white"/>
<path d="M78 35C87.665 35 95.5 27.165 95.5 17.5C95.5 7.83502 87.665 0 78 0C68.335 0 60.5 7.83502 60.5 17.5C60.5 27.165 68.335 35 78 35Z" fill="white"/>
<path d="M102.341 287.5C108.953 287.5 114.565 286.035 119.176 283.106C123.787 280.177 127.252 276.393 129.572 271.753C131.892 267.113 133.052 262.241 133.052 257.137C133.052 252.033 131.892 247.161 129.572 242.521C127.252 237.881 123.787 234.096 119.176 231.167C114.565 228.238 108.953 226.774 102.341 226.774H84.854C83.752 226.774 82.824 227.165 82.07 227.948C81.316 228.731 80.939 229.674 80.939 230.776V283.585C80.939 284.687 81.316 285.615 82.07 286.369C82.824 287.123 83.752 287.5 84.854 287.5H102.341ZM101.384 280.105H88.856V234.169H101.384C106.14 234.169 110.316 235.14 113.912 237.083C117.508 239.026 120.292 241.723 122.264 245.174C124.236 248.625 125.222 252.613 125.222 257.137C125.222 261.661 124.236 265.648 122.264 269.099C120.292 272.55 117.508 275.247 113.912 277.19C110.316 279.133 106.14 280.105 101.384 280.105ZM185.078 287.5C186.122 287.5 187.007 287.152 187.732 286.456C188.457 285.76 188.819 284.89 188.819 283.846C188.819 282.802 188.457 281.917 187.732 281.192C187.007 280.467 186.122 280.105 185.078 280.105H154.193V260.791H181.946C182.99 260.791 183.875 260.443 184.6 259.747C185.325 259.051 185.687 258.181 185.687 257.137C185.687 256.093 185.325 255.208 184.6 254.483C183.875 253.758 182.99 253.396 181.946 253.396H154.193V234.169H185.078C186.122 234.169 187.007 233.821 187.732 233.125C188.457 232.429 188.819 231.559 188.819 230.515C188.819 229.471 188.457 228.586 187.732 227.861C187.007 227.136 186.122 226.774 185.078 226.774H150.191C149.089 226.774 148.161 227.165 147.407 227.948C146.653 228.731 146.276 229.674 146.276 230.776V283.585C146.276 284.687 146.653 285.615 147.407 286.369C148.161 287.123 149.089 287.5 150.191 287.5H185.078ZM220.922 288.37C225.33 288.37 229.216 287.645 232.58 286.195C235.944 284.745 238.554 282.729 240.41 280.148C242.266 277.567 243.194 274.653 243.194 271.405C243.194 267.461 242.194 264.329 240.193 262.009C238.192 259.689 235.785 257.978 232.972 256.876C230.159 255.774 226.461 254.672 221.879 253.57C218.341 252.758 215.543 251.989 213.484 251.264C211.425 250.539 209.714 249.524 208.351 248.219C206.988 246.914 206.306 245.218 206.306 243.13C206.306 239.998 207.742 237.562 210.613 235.822C213.484 234.082 217.21 233.212 221.792 233.212C226.606 233.212 231.275 233.995 235.799 235.561C236.379 235.793 236.843 235.909 237.191 235.909C238.235 235.909 239.076 235.532 239.714 234.778C240.352 234.024 240.671 233.183 240.671 232.255C240.671 230.515 239.859 229.355 238.235 228.775C233.073 226.861 227.302 225.904 220.922 225.904C216.166 225.904 212.092 226.701 208.699 228.296C205.306 229.891 202.739 232.037 200.999 234.734C199.259 237.431 198.389 240.433 198.389 243.739C198.389 247.509 199.433 250.525 201.521 252.787C203.609 255.049 206.103 256.745 209.003 257.876C211.903 259.007 215.702 260.182 220.4 261.4C223.938 262.328 226.664 263.125 228.578 263.792C230.492 264.459 232.102 265.373 233.407 266.533C234.712 267.693 235.364 269.143 235.364 270.883C235.364 277.553 230.289 280.888 220.139 280.888C214.049 280.888 208.336 279.699 203 277.321C202.478 277.089 201.927 276.973 201.347 276.973C200.303 276.973 199.448 277.335 198.781 278.06C198.114 278.785 197.78 279.641 197.78 280.627C197.78 281.381 198.012 282.091 198.476 282.758C198.94 283.425 199.52 283.904 200.216 284.194C206.654 286.978 213.556 288.37 220.922 288.37ZM259.289 287.935C260.391 287.935 261.334 287.558 262.117 286.804C262.9 286.05 263.291 285.122 263.291 284.02V230.341C263.291 229.239 262.9 228.296 262.117 227.513C261.334 226.73 260.391 226.339 259.289 226.339C258.187 226.339 257.259 226.73 256.505 227.513C255.751 228.296 255.374 229.239 255.374 230.341V284.02C255.374 285.122 255.751 286.05 256.505 286.804C257.259 287.558 258.187 287.935 259.289 287.935Z" fill="white"/>
<path d="M393.269 287.935C394.835 287.935 396.184 287.384 397.315 286.282C398.446 285.18 399.011 283.846 399.011 282.28V230.341C399.011 229.239 398.62 228.296 397.837 227.513C397.054 226.73 396.111 226.339 395.009 226.339C393.907 226.339 392.979 226.73 392.225 227.513C391.471 228.296 391.094 229.239 391.094 230.341V277.321L357.599 228.949C356.265 227.209 354.67 226.339 352.814 226.339H351.683C350.117 226.339 348.783 226.904 347.681 228.035C346.579 229.166 346.028 230.515 346.028 232.081V284.02C346.028 285.122 346.405 286.05 347.159 286.804C347.913 287.558 348.841 287.935 349.943 287.935C351.045 287.935 351.988 287.558 352.771 286.804C353.554 286.05 353.945 285.122 353.945 284.02V236.953L387.614 285.586C388.136 286.282 388.803 286.847 389.615 287.282C390.427 287.717 391.297 287.935 392.225 287.935H393.269Z" fill="white"/>
<path fill-rule="evenodd" clip-rule="evenodd" d="M291 291.5C300.665 291.5 308.5 299.335 308.5 309C308.5 318.665 300.665 326.5 291 326.5C281.335 326.5 273.5 318.665 273.5 309C273.5 299.335 281.335 291.5 291 291.5ZM305.25 225C322.509 225 336.5 238.991 336.5 256.25C336.5 273.509 322.509 287.5 305.25 287.5C287.991 287.5 274 273.509 274 256.25C274 238.991 287.991 225 305.25 225Z" fill="white"/>
<path d="M259.289 187.935C260.855 187.935 262.204 187.384 263.335 186.282C264.466 185.18 265.031 183.846 265.031 182.28V130.341C265.031 129.239 264.64 128.296 263.857 127.513C263.074 126.73 262.131 126.339 261.029 126.339C259.927 126.339 258.999 126.73 258.245 127.513C257.491 128.296 257.114 129.239 257.114 130.341V177.321L223.619 128.949C222.285 127.209 220.69 126.339 218.834 126.339H217.703C216.137 126.339 214.803 126.904 213.701 128.035C212.599 129.166 212.048 130.515 212.048 132.081V184.02C212.048 185.122 212.425 186.05 213.179 186.804C213.933 187.558 214.861 187.935 215.963 187.935C217.065 187.935 218.008 187.558 218.791 186.804C219.574 186.05 219.965 185.122 219.965 184.02V136.953L253.634 185.586C254.156 186.282 254.823 186.847 255.635 187.282C256.447 187.717 257.317 187.935 258.245 187.935H259.289ZM301.049 188.37C305.457 188.37 309.343 187.645 312.707 186.195C316.071 184.745 318.681 182.729 320.537 180.148C322.393 177.567 323.321 174.653 323.321 171.405C323.321 167.461 322.321 164.329 320.32 162.009C318.319 159.689 315.912 157.978 313.099 156.876C310.286 155.774 306.588 154.672 302.006 153.57C298.468 152.758 295.67 151.989 293.611 151.264C291.552 150.539 289.841 149.524 288.478 148.219C287.115 146.914 286.433 145.218 286.433 143.13C286.433 139.998 287.869 137.562 290.74 135.822C293.611 134.082 297.337 133.212 301.919 133.212C306.733 133.212 311.402 133.995 315.926 135.561C316.506 135.793 316.97 135.909 317.318 135.909C318.362 135.909 319.203 135.532 319.841 134.778C320.479 134.024 320.798 133.183 320.798 132.255C320.798 130.515 319.986 129.355 318.362 128.775C313.2 126.861 307.429 125.904 301.049 125.904C296.293 125.904 292.219 126.701 288.826 128.296C285.433 129.891 282.866 132.037 281.126 134.734C279.386 137.431 278.516 140.433 278.516 143.739C278.516 147.509 279.56 150.525 281.648 152.787C283.736 155.049 286.23 156.745 289.13 157.876C292.03 159.007 295.829 160.182 300.527 161.4C304.065 162.328 306.791 163.125 308.705 163.792C310.619 164.459 312.229 165.373 313.534 166.533C314.839 167.693 315.491 169.143 315.491 170.883C315.491 177.553 310.416 180.888 300.266 180.888C294.176 180.888 288.463 179.699 283.127 177.321C282.605 177.089 282.054 176.973 281.474 176.973C280.43 176.973 279.575 177.335 278.908 178.06C278.241 178.785 277.907 179.641 277.907 180.627C277.907 181.381 278.139 182.091 278.603 182.758C279.067 183.425 279.647 183.904 280.343 184.194C286.781 186.978 293.683 188.37 301.049 188.37ZM353.51 187.935C354.612 187.935 355.555 187.558 356.338 186.804C357.121 186.05 357.512 185.122 357.512 184.02V134.169H375.173C376.217 134.169 377.102 133.821 377.827 133.125C378.552 132.429 378.914 131.559 378.914 130.515C378.914 129.471 378.552 128.586 377.827 127.861C377.102 127.136 376.217 126.774 375.173 126.774H331.847C330.803 126.774 329.933 127.136 329.237 127.861C328.541 128.586 328.193 129.471 328.193 130.515C328.193 131.559 328.541 132.429 329.237 133.125C329.933 133.821 330.803 134.169 331.847 134.169H349.595V184.02C349.595 185.122 349.972 186.05 350.726 186.804C351.48 187.558 352.408 187.935 353.51 187.935ZM427.286 187.5C428.33 187.5 429.215 187.152 429.94 186.456C430.665 185.76 431.027 184.89 431.027 183.846C431.027 182.802 430.665 181.917 429.94 181.192C429.215 180.467 428.33 180.105 427.286 180.105H396.401V160.791H424.154C425.198 160.791 426.083 160.443 426.808 159.747C427.533 159.051 427.895 158.181 427.895 157.137C427.895 156.093 427.533 155.208 426.808 154.483C426.083 153.758 425.198 153.396 424.154 153.396H396.401V134.169H427.286C428.33 134.169 429.215 133.821 429.94 133.125C430.665 132.429 431.027 131.559 431.027 130.515C431.027 129.471 430.665 128.586 429.94 127.861C429.215 127.136 428.33 126.774 427.286 126.774H392.399C391.297 126.774 390.369 127.165 389.615 127.948C388.861 128.731 388.484 129.674 388.484 130.776V183.585C388.484 184.687 388.861 185.615 389.615 186.369C390.369 187.123 391.297 187.5 392.399 187.5H427.286ZM480.356 187.5C481.458 187.5 482.401 187.123 483.184 186.369C483.967 185.615 484.358 184.687 484.358 183.585C484.358 182.483 483.967 181.54 483.184 180.757C482.401 179.974 481.458 179.583 480.356 179.583H451.907V130.341C451.907 129.239 451.516 128.296 450.733 127.513C449.95 126.73 449.007 126.339 447.905 126.339C446.803 126.339 445.875 126.73 445.121 127.513C444.367 128.296 443.99 129.239 443.99 130.341V182.019C443.99 183.527 444.527 184.817 445.6 185.89C446.673 186.963 447.963 187.5 449.471 187.5H480.356ZM530.468 187.5C531.57 187.5 532.513 187.123 533.296 186.369C534.079 185.615 534.47 184.687 534.47 183.585C534.47 182.483 534.079 181.54 533.296 180.757C532.513 179.974 531.57 179.583 530.468 179.583H502.019V130.341C502.019 129.239 501.628 128.296 500.845 127.513C500.062 126.73 499.119 126.339 498.017 126.339C496.915 126.339 495.987 126.73 495.233 127.513C494.479 128.296 494.102 129.239 494.102 130.341V182.019C494.102 183.527 494.639 184.817 495.712 185.89C496.785 186.963 498.075 187.5 499.583 187.5H530.468ZM592.412 187.935C593.572 187.935 594.515 187.558 595.24 186.804C595.965 186.05 596.327 185.122 596.327 184.02C596.327 183.556 596.182 182.976 595.892 182.28L573.707 129.906C573.243 128.862 572.591 128.006 571.75 127.339C570.909 126.672 569.879 126.339 568.661 126.339H567.791C566.573 126.339 565.544 126.672 564.703 127.339C563.862 128.006 563.209 128.862 562.745 129.906L540.56 182.28C540.27 182.976 540.125 183.556 540.125 184.02C540.125 185.122 540.488 186.05 541.213 186.804C541.938 187.558 542.88 187.935 544.04 187.935C544.852 187.935 545.592 187.717 546.259 187.282C546.926 186.847 547.433 186.253 547.781 185.499L553.436 171.927H583.016L588.671 185.499C589.019 186.253 589.527 186.847 590.194 187.282C590.861 187.717 591.6 187.935 592.412 187.935ZM579.971 164.706H556.481L568.226 136.431L579.971 164.706ZM627.125 187.935C628.227 187.935 629.17 187.558 629.953 186.804C630.736 186.05 631.127 185.122 631.127 184.02V134.169H648.788C649.832 134.169 650.717 133.821 651.442 133.125C652.167 132.429 652.529 131.559 652.529 130.515C652.529 129.471 652.167 128.586 651.442 127.861C650.717 127.136 649.832 126.774 648.788 126.774H605.462C604.418 126.774 603.548 127.136 602.852 127.861C602.156 128.586 601.808 129.471 601.808 130.515C601.808 131.559 602.156 132.429 602.852 133.125C603.548 133.821 604.418 134.169 605.462 134.169H623.21V184.02C623.21 185.122 623.587 186.05 624.341 186.804C625.095 187.558 626.023 187.935 627.125 187.935ZM666.014 187.935C667.116 187.935 668.059 187.558 668.842 186.804C669.625 186.05 670.016 185.122 670.016 184.02V130.341C670.016 129.239 669.625 128.296 668.842 127.513C668.059 126.73 667.116 126.339 666.014 126.339C664.912 126.339 663.984 126.73 663.23 127.513C662.476 128.296 662.099 129.239 662.099 130.341V184.02C662.099 185.122 662.476 186.05 663.23 186.804C663.984 187.558 664.912 187.935 666.014 187.935ZM804.779 187.935C806.345 187.935 807.694 187.384 808.825 186.282C809.956 185.18 810.521 183.846 810.521 182.28V130.341C810.521 129.239 810.13 128.296 809.347 127.513C808.564 126.73 807.621 126.339 806.519 126.339C805.417 126.339 804.489 126.73 803.735 127.513C802.981 128.296 802.604 129.239 802.604 130.341V177.321L769.109 128.949C767.775 127.209 766.18 126.339 764.324 126.339H763.193C761.627 126.339 760.293 126.904 759.191 128.035C758.089 129.166 757.538 130.515 757.538 132.081V184.02C757.538 185.122 757.915 186.05 758.669 186.804C759.423 187.558 760.351 187.935 761.453 187.935C762.555 187.935 763.497 187.558 764.281 186.804C765.064 186.05 765.455 185.122 765.455 184.02V136.953L799.124 185.586C799.646 186.282 800.313 186.847 801.125 187.282C801.937 187.717 802.807 187.935 803.735 187.935H804.779Z" fill="white"/>
<path d="M714.25 189.5C732.337 189.5 747 174.837 747 156.75C747 138.663 732.337 124 714.25 124C696.163 124 681.5 138.663 681.5 156.75C681.5 174.837 696.163 189.5 714.25 189.5Z" fill="white"/>
<path d="M168.75 189.5C186.837 189.5 201.5 174.837 201.5 156.75C201.5 138.663 186.837 124 168.75 124C150.663 124 136 138.663 136 156.75C136 174.837 150.663 189.5 168.75 189.5Z" fill="white"/>
<path d="M107.735 188.37C111.679 188.37 115.203 187.906 118.306 186.978C121.409 186.05 124.497 184.716 127.571 182.976C128.847 182.28 129.485 181.178 129.485 179.67C129.485 178.742 129.166 177.959 128.528 177.321C127.89 176.683 127.049 176.364 126.005 176.364C125.425 176.364 124.903 176.48 124.439 176.712C121.887 178.046 119.393 179.061 116.957 179.757C114.521 180.453 111.708 180.801 108.518 180.801C103.53 180.801 99.2815 179.771 95.7725 177.712C92.2635 175.653 89.6245 172.84 87.8555 169.273C86.0865 165.706 85.202 161.661 85.202 157.137C85.202 152.613 86.0865 148.567 87.8555 145C89.6245 141.433 92.2635 138.62 95.7725 136.561C99.2815 134.502 103.53 133.473 108.518 133.473C111.708 133.473 114.521 133.821 116.957 134.517C119.393 135.213 121.887 136.228 124.439 137.562C124.903 137.794 125.425 137.91 126.005 137.91C127.049 137.91 127.89 137.576 128.528 136.909C129.166 136.242 129.485 135.474 129.485 134.604C129.485 133.096 128.847 131.994 127.571 131.298C124.497 129.558 121.409 128.224 118.306 127.296C115.203 126.368 111.679 125.904 107.735 125.904C101.935 125.904 96.7295 127.165 92.1185 129.688C87.5075 132.211 83.8825 135.836 81.2435 140.563C78.6045 145.29 77.285 150.815 77.285 157.137C77.285 163.459 78.6045 168.983 81.2435 173.71C83.8825 178.437 87.5075 182.062 92.1185 184.585C96.7295 187.108 101.935 188.37 107.735 188.37Z" fill="white"/>
</svg>
