<svg width="275" height="374" viewBox="0 0 275 374" xmlns="http://www.w3.org/2000/svg">
<path fill="currentColor" d="M113 56.5C113 87.7041 87.7041 113 56.5 113C25.2959 113 0 87.7041 0 56.5C0 25.2959 25.2959 0 56.5 0C87.7041 0 113 25.2959 113 56.5Z"/>
<path fill="currentColor" d="M113 186.5C113 217.704 87.7041 243 56.5 243C25.2959 243 0 217.704 0 186.5C0 155.296 25.2959 130 56.5 130C87.7041 130 113 155.296 113 186.5Z"/>
<path fill="currentColor" d="M113 317.5C113 348.704 87.7041 374 56.5 374C25.2959 374 0 348.704 0 317.5C0 286.296 25.2959 261 56.5 261C87.7041 261 113 286.296 113 317.5Z"/>
<path fill="currentColor" d="M241 317C241 329.703 230.703 340 218 340C205.297 340 195 329.703 195 317C195 304.297 205.297 294 218 294C230.703 294 241 304.297 241 317Z"/>
<path fill="currentColor" d="M274.5 56.5C274.5 87.7041 249.204 113 218 113C186.796 113 161.5 87.7041 161.5 56.5C161.5 25.2959 186.796 0 218 0C249.204 0 274.5 25.2959 274.5 56.5Z"/>
<path fill="currentColor" d="M274.5 186.5C274.5 217.704 249.204 243 218 243C186.796 243 161.5 217.704 161.5 186.5C161.5 155.296 186.796 130 218 130C249.204 130 274.5 155.296 274.5 186.5Z"/>
</svg>
